<svg width="30" height="30" viewBox="0 0 30 30" fill="none" xmlns="http://www.w3.org/2000/svg">
<circle cx="15" cy="15" r="15" fill="#343434"/>
<circle cx="15" cy="15" r="12" fill="white"/>
<path d="M13.4702 9.81644C14.2694 8.86755 15.7306 8.86755 16.5298 9.81644L18.2006 11.8004C18.3289 11.9527 18.4792 12.085 18.6466 12.1929L20.3932 13.3191C21.6147 14.1068 21.6147 15.8932 20.3932 16.6809L18.6466 17.8071C18.4792 17.915 18.3289 18.0473 18.2006 18.1996L16.5298 20.1836C15.7306 21.1324 14.2694 21.1324 13.4702 20.1836L11.7994 18.1996C11.6711 18.0473 11.5208 17.915 11.3534 17.8071L9.60684 16.6809C8.38526 15.8932 8.38526 14.1068 9.60684 13.3191L11.3534 12.1929C11.5208 12.085 11.6711 11.9527 11.7994 11.8004L13.4702 9.81644Z" fill="#141414"/>
</svg>
